<svg viewBox="0 0 20 21" xmlns="http://www.w3.org/2000/svg">
<rect y="0.5" width="20" height="20" rx="10" fill="#FF3C5F"/>
<path d="M10 4.5C6.68629 4.5 4 7.18629 4 10.5C4 13.8137 6.68629 16.5 10 16.5C13.3137 16.5 16 13.8137 16 10.5C15.9964 7.18777 13.3122 4.50359 10 4.5ZM10 6C10.9338 6.00009 11.8442 6.29243 12.6035 6.83599L6.33599 13.103C4.89452 11.0832 5.36336 8.27728 7.38316 6.8358C8.1468 6.29084 9.06184 5.99857 10 6ZM10 15C9.06632 15 8.1561 14.7076 7.39701 14.164L13.664 7.89652C15.1057 9.91612 14.6373 12.7221 12.6177 14.1638C11.8539 14.7091 10.9385 15.0015 10 15Z" fill="white"/>
</svg>
