<svg viewBox="0 0 84 84" xmlns="http://www.w3.org/2000/svg"><g fill="none" transform="translate(0 20)"><path d="m51.3926 16.2908c.5351.0484 1.0759.0769 1.6225.0769 4.4302-.0004 8.6994-1.6532 11.9652-4.6323 3.2658-2.97904 5.2911-7.06802 5.6762-11.460135-.8717-.137156-1.7529-.2066583-2.6355-.2078822-4.3539 0-8.5343 1.6989572-11.6434 4.7322972s-4.8989 7.15902-4.985 11.49112z" fill="#8cc63f"/><path d="m44.7793 9.72656h.2862c1.3175 0 2.581.52084 3.5126 1.44794s1.455 2.1846 1.455 3.4957v1.6289h-.2862c-1.3175 0-2.581-.5209-3.5126-1.448s-1.455-2.1845-1.455-3.4956z" fill="#8cc63f"/><g fill="#0a6ba9"><path d="m73.8823 14.7213c-1.3964 1.5776-13.1001 3.776-25.0271 3.739-18.5571-.0569-28.398-3.2435-29.6828-3.702v-.0513h-19.1724l19.5358 4.189c.251 1.4953.5777 2.977.9786 4.4396h-14.45078l15.61258 3.4173c.5865 1.5015 1.4011 2.9047 2.4152 4.1605l.4063.4784h-11.9412l14.6912 3.1325c1.5452 1.6716 3.0475 3.0271 4.6128 3.702 0 .1367-.0201.2848-.0201.4129-.0154 1.3971.5238 2.7438 1.5006 3.7475.9767 1.0036 2.3121 1.583 3.7157 1.6123 1.4037.0293 2.7622-.494 3.7804-1.456 1.0181-.9621 1.6136-2.2851 1.6569-3.6817 2.6383 0 5.5028-.0313 8.1583-.0626.0456 1.3901.638 2.7068 1.6495 3.6665 1.0116.9598 2.3614 1.4858 3.7588 1.4649 1.3975-.0209 2.7308-.5871 3.7129-1.5767.9821-.9895 1.5344-2.3233 1.538-3.7142 0-.074 0-.1481 0-.2221 1.9259-.9141 6.2954-4.6162 8.8022-9.1127 4.6271-8.3381 3.7686-14.5831 3.7686-14.5831z"/><path d="m31.708.892307c-.289-.284978-.6317-.510463-1.0084-.663565-.3766-.1531015-.7799-.23081574-1.1868-.228742-.4069.00215787-.8094.0840633-1.1844.241074-.3751.15701-.7154.386047-1.0014.674016l-3.9175 3.94408c-.509.51912-.8177 1.2003-.8717 1.92363-.054.72332.1501 1.44242.5765 2.0307.4263.58828 1.0476 1.00803 1.7543 1.18535.7067.17735 1.4536.10085 2.1093-.21598l5.4369 6.13113c4.6125.6169 9.2569.9687 13.91 1.0536l-13.9357-12.68082c.2415-.56854.3057-1.19621.1843-1.80152-.1215-.60532-.423-1.16032-.8654-1.592953z"/></g></g></svg>